<svg 
 xmlns="http://www.w3.org/2000/svg"
 xmlns:xlink="http://www.w3.org/1999/xlink"
 width="5000" height="5000">
<path fill-rule="evenodd"  fill="#000000"
 d="M3595.826,599.265 C3590.750,599.265 3586.496,597.657 3583.040,594.432 C3579.585,591.217 3577.857,587.528 3577.857,583.385 L3577.857,544.723 L3848.078,544.723 L3848.078,891.992 C3823.652,909.025 3798.319,924.214 3772.057,937.559 C3745.795,950.913 3717.687,962.067 3687.742,971.043 C3657.787,980.018 3625.543,986.922 3590.988,991.754 C3556.433,996.587 3518.649,999.003 3477.647,999.003 C3407.154,999.003 3342.763,987.159 3284.484,963.448 C3226.194,939.748 3176.207,906.145 3134.514,862.650 C3092.811,819.156 3060.448,766.578 3037.414,704.895 C3014.371,643.223 3002.859,574.648 3002.859,499.157 C3002.859,423.678 3014.371,355.210 3037.414,293.765 C3060.448,232.319 3093.156,179.849 3135.551,136.354 C3177.935,92.859 3229.422,59.267 3290.013,35.557 C3350.592,11.857 3418.439,0.001 3493.542,0.001 C3530.862,0.001 3565.298,2.536 3596.862,7.596 C3628.416,12.666 3657.787,20.141 3684.978,30.033 C3712.158,39.936 3737.502,52.126 3760.999,66.624 C3784.497,81.123 3807.066,97.811 3828.727,116.678 L3810.068,147.056 C3805.921,153.960 3800.155,157.412 3792.790,157.412 C3788.643,157.412 3784.724,156.494 3781.041,154.650 C3774.130,151.888 3764.109,145.448 3750.978,135.319 C3737.847,125.200 3720.105,114.607 3697.763,103.561 C3675.410,92.514 3647.421,82.622 3613.794,73.874 C3580.157,65.136 3539.382,60.756 3491.469,60.756 C3427.888,60.756 3370.526,70.886 3319.385,91.134 C3268.243,111.392 3224.585,140.389 3188.420,178.123 C3152.245,215.868 3124.374,261.898 3104.797,316.202 C3085.209,370.517 3075.425,431.498 3075.425,499.157 C3075.425,568.197 3085.327,630.106 3105.142,684.874 C3124.947,739.652 3152.710,786.017 3188.420,823.988 C3224.120,861.960 3266.968,891.075 3316.965,911.323 C3366.952,931.582 3422.121,941.701 3482.485,941.701 C3516.111,941.701 3546.757,939.975 3574.401,936.523 C3602.046,933.071 3627.724,927.893 3651.460,920.989 C3675.184,914.085 3697.763,905.692 3719.187,895.789 C3740.612,885.897 3762.144,874.732 3783.806,862.305 L3783.806,599.265 L3595.826,599.265 ZM2289.568,983.042 C2285.425,979.588 2282.200,975.098 2279.902,969.572 L2164.591,685.665 L1684.706,685.665 L1570.087,969.572 C1568.241,974.645 1565.016,979.016 1560.420,982.697 C1555.813,986.388 1550.289,988.223 1543.848,988.223 L1489.990,988.223 L1889.779,10.782 L1960.208,10.782 L2359.997,988.223 L2305.449,988.223 C2298.998,988.223 2293.711,986.496 2289.568,983.042 ZM1944.327,139.265 C1941.102,131.440 1937.876,122.579 1934.661,112.670 C1931.435,102.773 1928.209,92.293 1924.994,81.241 C1921.768,92.293 1918.542,102.773 1915.327,112.670 C1912.101,122.579 1908.875,131.667 1905.660,139.956 L1706.111,633.167 L2143.877,633.167 L1944.327,139.265 ZM2240.766,1511.001 L2302.990,1511.001 L2302.990,2488.004 L2269.113,2488.004 C2258.504,2488.004 2249.981,2483.408 2243.531,2474.195 L1607.460,1626.308 C1608.842,1640.117 1609.533,1653.236 1609.533,1665.664 L1609.533,2488.004 L1548.001,2488.004 L1548.001,1511.001 L1582.570,1511.001 C1589.019,1511.001 1594.085,1511.810 1597.780,1513.417 C1601.464,1515.035 1605.385,1518.596 1609.533,1524.119 L2242.840,2370.626 C2241.457,2356.816 2240.766,2343.471 2240.766,2330.579 L2240.766,1511.001 ZM1960.099,3010.782 L2359.891,3988.223 L2305.343,3988.223 C2298.891,3988.223 2293.605,3986.496 2289.462,3983.042 C2285.319,3979.588 2282.093,3975.098 2279.795,3969.572 L2164.483,3685.665 L1684.595,3685.665 L1569.974,3969.572 C1568.129,3974.645 1564.903,3979.016 1560.307,3982.697 C1555.700,3986.388 1550.176,3988.223 1543.735,3988.223 L1489.877,3988.223 L1889.670,3010.782 L1960.099,3010.782 ZM2143.769,3633.167 L1944.218,3139.265 C1940.992,3131.440 1937.766,3122.579 1934.551,3112.671 C1931.325,3102.773 1928.099,3092.293 1924.884,3081.240 C1921.659,3092.293 1918.433,3102.773 1915.218,3112.671 C1911.992,3122.579 1908.766,3131.667 1905.551,3139.956 L1706.000,3633.167 L2143.769,3633.167 ZM685.647,3971.042 C655.692,3980.018 623.448,3986.922 588.892,3991.754 C554.337,3996.587 516.552,3999.004 475.550,3999.004 C405.057,3999.004 340.665,3987.159 282.385,3963.448 C224.095,3939.748 174.108,3906.146 132.415,3862.651 C90.711,3819.156 58.347,3766.578 35.314,3704.895 C12.270,3643.223 0.759,3574.648 0.759,3499.157 C0.759,3423.678 12.270,3355.210 35.314,3293.765 C58.347,3232.319 91.056,3179.849 133.451,3136.355 C175.836,3092.860 227.324,3059.268 287.914,3035.557 C348.494,3011.857 416.342,3000.001 491.446,3000.001 C528.766,3000.001 563.202,3002.536 594.766,3007.596 C626.320,3012.666 655.692,3020.142 682.883,3030.034 C710.063,3039.936 735.407,3052.126 758.905,3066.625 C782.403,3081.123 804.972,3097.811 826.633,3116.678 L807.973,3147.056 C803.827,3153.960 798.060,3157.411 790.696,3157.411 C786.549,3157.411 782.629,3156.495 778.947,3154.650 C772.036,3151.888 762.015,3145.448 748.884,3135.319 C735.753,3125.200 718.011,3114.607 695.669,3103.561 C673.315,3092.514 645.326,3082.622 611.699,3073.874 C578.061,3065.136 537.286,3060.756 489.372,3060.756 C425.790,3060.756 368.428,3070.885 317.286,3091.133 C266.144,3111.392 222.486,3140.389 186.321,3178.123 C150.146,3215.869 122.275,3261.899 102.697,3316.203 C83.109,3370.517 73.325,3431.499 73.325,3499.157 C73.325,3568.197 83.227,3630.106 103.043,3684.874 C122.847,3739.652 150.610,3786.017 186.321,3823.988 C222.021,3861.960 264.870,3891.075 314.868,3911.323 C364.854,3931.582 420.024,3941.701 480.388,3941.701 C514.015,3941.701 544.661,3939.975 572.305,3936.523 C599.950,3933.071 625.629,3927.893 649.364,3920.989 C673.088,3914.085 695.669,3905.692 717.093,3895.790 C738.517,3885.898 760.050,3874.732 781.711,3862.305 L781.711,3599.264 L593.730,3599.264 C588.655,3599.264 584.400,3597.657 580.944,3594.432 C577.489,3591.217 575.761,3587.528 575.761,3583.385 L575.761,3544.723 L845.985,3544.723 L845.985,3891.992 C821.558,3909.026 796.225,3924.214 769.962,3937.558 C743.700,3950.913 715.592,3962.067 685.647,3971.042 ZM716.870,2429.315 L716.870,2488.004 L131.207,2488.004 L131.207,1511.001 L716.870,1511.001 L716.870,1569.690 L202.343,1569.690 L202.343,1964.634 L630.540,1964.634 L630.540,2021.943 L202.343,2021.943 L202.343,2429.315 L716.870,2429.315 ZM729.592,519.880 L117.306,519.880 L117.306,988.223 L46.125,988.223 L46.125,10.782 L117.306,10.782 L117.306,466.691 L729.592,466.691 L729.592,10.782 L800.771,10.782 L800.771,988.223 L729.592,988.223 L729.592,519.880 ZM3717.870,2429.315 L3717.870,2488.004 L3132.207,2488.004 L3132.207,1511.001 L3717.870,1511.001 L3717.870,1569.690 L3203.343,1569.690 L3203.343,1964.634 L3631.540,1964.634 L3631.540,2021.943 L3203.343,2021.943 L3203.343,2429.315 L3717.870,2429.315 ZM3120.181,3466.691 L3732.472,3466.691 L3732.472,3010.782 L3803.653,3010.782 L3803.653,3988.223 L3732.472,3988.223 L3732.472,3519.880 L3120.181,3519.880 L3120.181,3988.223 L3049.001,3988.223 L3049.001,3010.782 L3120.181,3010.782 L3120.181,3466.691 Z"/>
</svg>