<svg width="1182" height="591" viewBox="0 0 1182 591" fill="none" xmlns="http://www.w3.org/2000/svg">
<path d="M0.480522 564.472H58.5105C66.2479 564.472 71.4982 563.09 74.2615 560.327C77.0249 557.011 78.4065 551.761 78.4065 544.576V47.176C78.4065 39.4387 77.0249 34.1883 74.2615 31.425C71.4982 28.6617 66.2479 27.28 58.5105 27.28H0.480522V0.75199H279.025V27.28H220.995C213.81 27.28 208.56 28.6617 205.244 31.425C202.48 34.1883 201.099 39.4387 201.099 47.176V266.032H396.743V47.176C396.743 39.4387 395.361 34.1883 392.598 31.425C389.834 28.6617 384.584 27.28 376.847 27.28H317.159V0.75199H597.361V27.28H539.331C532.146 27.28 526.896 28.6617 523.58 31.425C520.816 34.1883 519.435 39.4387 519.435 47.176V544.576C519.435 551.761 520.816 557.011 523.58 560.327C526.896 563.09 532.146 564.472 539.331 564.472H597.361V591H318.817V564.472H376.847C384.584 564.472 389.834 563.09 392.598 560.327C395.361 557.011 396.743 551.761 396.743 544.576V295.876H201.099V544.576C201.099 551.761 202.48 557.011 205.244 560.327C208.56 563.09 213.81 564.472 220.995 564.472H279.025V591H0.480522V564.472ZM683.758 564.472H741.788C749.525 564.472 754.776 563.09 757.539 560.327C760.302 557.011 761.684 551.761 761.684 544.576V47.176C761.684 39.4387 760.302 34.1883 757.539 31.425C754.776 28.6617 749.525 27.28 741.788 27.28H683.758V0.75199H975.566C1008.17 0.75199 1038.57 6.83131 1066.76 18.99C1095.49 31.1486 1118.43 48.005 1135.56 69.559C1152.7 90.5603 1161.26 114.601 1161.26 141.682C1161.26 178.158 1147.72 207.726 1120.64 230.385C1093.56 253.044 1060.4 269.624 1021.16 280.125V285.099C1046.58 288.968 1071.45 297.258 1095.77 309.969C1120.64 322.128 1141.09 338.431 1157.12 358.88C1173.14 379.329 1181.16 403.093 1181.16 430.174C1181.16 463.887 1172.32 492.902 1154.63 517.219C1136.94 541.536 1113.18 560.051 1083.34 572.762C1054.04 584.921 1021.71 591 986.343 591H683.758V564.472ZM960.644 269.348C990.488 269.348 1010.66 258.847 1021.16 237.846C1031.66 216.292 1036.91 184.237 1036.91 141.682C1036.91 105.759 1030.56 77.849 1017.84 57.953C1005.13 37.5043 987.725 27.28 965.618 27.28H904.272C897.087 27.28 891.837 28.6617 888.521 31.425C885.758 34.1883 884.376 39.4387 884.376 47.176V269.348H960.644ZM960.644 564.472C989.935 564.472 1011.77 554.8 1026.13 535.457C1041.06 515.561 1048.52 480.467 1048.52 430.174C1048.52 379.881 1041.06 345.063 1026.13 325.72C1011.77 305.824 989.935 295.876 960.644 295.876H884.376V544.576C884.376 551.761 885.758 557.011 888.521 560.327C891.837 563.09 897.087 564.472 904.272 564.472H960.644Z" fill="#63464D"/>
</svg>
