<?xml version="1.0" standalone="no"?>
<!DOCTYPE svg PUBLIC "-//W3C//DTD SVG 20010904//EN"
 "http://www.w3.org/TR/2001/REC-SVG-20010904/DTD/svg10.dtd">
<svg version="1.0" xmlns="http://www.w3.org/2000/svg"
 width="512.000000pt" height="512.000000pt" viewBox="0 0 512.000000 512.000000"
 preserveAspectRatio="xMidYMid meet">
<metadata>
Created by potrace 1.11, written by Peter Selinger 2001-2013
</metadata>
<g transform="translate(0.000000,512.000000) scale(0.100000,-0.100000)"
fill="#000000" stroke="none">
<path d="M261 4855 c-4 -5 -7 -1043 -7 -2305 l1 -2295 2305 0 2305 0 1 2303
c0 1266 -2 2303 -5 2303 -3 1 -1038 2 -2299 3 -1521 1 -2296 -2 -2301 -9z
m4552 -2277 c0 -1228 -1 -2242 -2 -2253 -1 -20 -8 -20 -2249 -19 l-2247 0 -3
2252 -2 2252 2252 0 2253 0 -2 -2232z"/>
<path d="M1558 3312 c-9 -2 -16 -11 -15 -22 1 -14 13 -19 58 -24 62 -7 94 -30
106 -74 5 -15 8 -306 8 -647 0 -587 -1 -621 -19 -647 -18 -28 -68 -48 -118
-48 -16 0 -29 -4 -29 -10 -1 -5 -2 -15 -3 -21 -1 -8 77 -12 272 -13 270 -1
272 -1 272 20 0 18 -8 22 -56 27 -67 7 -100 33 -110 86 -7 36 -12 573 -6 601
3 13 49 15 345 14 l342 -1 0 -284 c0 -156 -2 -301 -6 -323 -9 -52 -44 -85 -99
-92 -62 -7 -72 -12 -68 -30 3 -14 43 -16 383 -16 l380 -1 80 26 c183 60 290
188 299 356 11 208 -110 348 -345 397 -41 8 -75 16 -76 18 -2 1 23 13 55 26
168 69 254 185 254 345 1 117 -37 193 -127 255 -104 72 -164 80 -565 81 -322
0 -335 -1 -338 -19 -3 -16 5 -20 47 -25 61 -7 86 -19 108 -53 15 -23 17 -62
18 -316 1 -178 -2 -291 -8 -295 -18 -11 -668 -9 -676 2 -11 16 -5 567 7 597
18 43 62 65 135 67 23 1 28 5 25 22 -3 20 -8 21 -259 22 -140 1 -262 1 -271
-1z m1572 -77 c96 -53 138 -157 127 -320 -11 -159 -73 -259 -182 -290 -47 -14
-153 -21 -251 -16 -20 1 -20 5 -19 284 2 286 6 317 41 348 30 26 44 29 139 26
78 -2 97 -7 145 -32z m1 -684 c157 -40 230 -144 230 -332 0 -233 -125 -355
-374 -363 -104 -4 -150 12 -168 57 -10 24 -14 110 -15 337 0 168 1 309 3 313
8 15 255 6 324 -12z"/>
</g>
</svg>
