<svg width="1158" height="1383" viewBox="0 0 1158 1383" fill="none" xmlns="http://www.w3.org/2000/svg">
<path fill-rule="evenodd" clip-rule="evenodd" d="M2.34315 1113.61C-0.781046 1110.48 -0.781047 1105.42 2.34315 1102.29L71.7441 1032.89C72.3876 1032.25 72.6403 1031.33 72.6403 1030.42V92.5761C72.6403 88.1579 76.222 84.5761 80.6403 84.5761H1016.75C1018.87 84.5761 1020.9 83.7333 1022.4 82.233L1102.29 2.34316C1105.42 -0.781034 1110.48 -0.781035 1113.61 2.34316L1155.33 44.0625C1158.45 47.1867 1158.45 52.252 1155.33 55.3762L1074.98 135.718C1073.48 137.218 1072.64 139.253 1072.64 141.375V1030.4C1072.64 1033.02 1071.36 1035.47 1069.22 1036.96L575.733 1381.37C572.975 1383.3 569.309 1383.29 566.557 1381.36L138.94 1081.13C135.759 1078.89 131.434 1079.27 128.686 1082.02L55.3762 1155.33C52.252 1158.45 47.1866 1158.45 44.0624 1155.33L2.34315 1113.61ZM997.64 232.375C997.64 225.248 989.023 221.678 983.983 226.718L194.01 1016.69C190.496 1020.21 191.003 1026.04 195.07 1028.9L566.686 1289.81C569.438 1291.74 573.104 1291.75 575.862 1289.82L994.219 997.848C996.363 996.352 997.64 993.902 997.64 991.287V232.375ZM241.31 274.551C236.534 273.246 231.033 275.299 228.532 279.571C225.641 284.508 222.292 288.648 220.136 291.11C218.738 292.706 216.703 293.543 214.581 293.543H213.141C208.723 293.543 205.014 289.974 204.654 285.571C204.138 279.262 203.078 268.526 200.896 251.053C200.122 244.744 201.116 238.344 203.767 232.567C206.419 226.79 210.624 221.864 215.913 218.338C221.201 214.812 227.366 212.824 233.718 212.598C240.07 212.371 246.361 213.915 251.887 217.055C271.642 227.757 286.296 225.063 295.846 223.306C298.621 222.796 300.965 222.365 302.879 222.365C309.674 222.365 314.055 225.989 317.951 229.212C320.277 231.135 322.43 232.916 324.82 233.699C326.638 234.294 328.402 235.744 328.512 237.653L328.512 237.654V237.654V237.655V237.656V237.657V237.657V237.658C328.975 245.7 329.368 252.519 307.13 255.299C292.462 257.134 287.918 274.97 286.51 285.624C285.934 289.988 282.324 293.543 277.923 293.543H276.886C272.468 293.543 268.886 289.961 268.886 285.543V284.763C268.886 278.934 262.725 274.97 256.94 275.681C254.832 275.94 252.701 276.033 250.566 275.958C247.426 275.848 244.321 275.373 241.31 274.551ZM214.581 470.509C216.703 470.509 218.738 469.672 220.136 468.076C222.292 465.615 225.641 461.475 228.532 456.538C231.033 452.266 236.534 450.213 241.31 451.517C244.321 452.339 247.426 452.814 250.566 452.925C252.701 453 254.832 452.906 256.94 452.647C262.725 451.936 268.886 455.901 268.886 461.729V462.509C268.886 466.927 272.468 470.509 276.886 470.509H277.923C282.324 470.509 285.934 466.954 286.51 462.591C287.918 451.937 292.462 434.101 307.13 432.265C329.368 429.486 328.975 422.666 328.512 414.624V414.624V414.623V414.622V414.622V414.621V414.621V414.62V414.62V414.619C328.402 412.71 326.638 411.26 324.82 410.665C322.43 409.882 320.277 408.102 317.951 406.178C314.055 402.955 309.674 399.331 302.879 399.331C300.965 399.331 298.621 399.762 295.846 400.273C286.296 402.029 271.642 404.724 251.887 394.022C246.361 390.881 240.07 389.338 233.718 389.564C227.366 389.791 221.201 391.778 215.913 395.304C210.624 398.83 206.419 403.757 203.767 409.534C201.116 415.311 200.122 421.711 200.896 428.02C203.078 445.492 204.138 456.228 204.654 462.537C205.014 466.941 208.723 470.509 213.141 470.509H214.581ZM241.31 628.483C236.534 627.179 231.033 629.232 228.532 633.504C225.641 638.441 222.292 642.581 220.136 645.042C218.738 646.638 216.703 647.475 214.581 647.475H213.141C208.723 647.475 205.014 643.907 204.654 639.504C204.138 633.195 203.078 622.458 200.896 604.986C200.122 598.677 201.116 592.277 203.767 586.5C206.419 580.723 210.624 575.797 215.913 572.271C221.201 568.744 227.366 566.757 233.718 566.531C240.07 566.304 246.361 567.847 251.887 570.988C271.642 581.69 286.296 578.995 295.846 577.239C298.621 576.729 300.965 576.298 302.879 576.298C309.674 576.298 314.055 579.921 317.951 583.144C320.275 585.067 322.427 586.847 324.816 587.63C326.636 588.227 328.402 589.679 328.512 591.59L328.512 591.591C328.975 599.633 329.368 606.452 307.13 609.232C292.462 611.067 287.918 628.903 286.51 639.557C285.934 643.921 282.324 647.475 277.923 647.475H276.886C272.468 647.475 268.886 643.894 268.886 639.475V638.696C268.886 632.867 262.725 628.903 256.94 629.614C254.832 629.872 252.701 629.966 250.566 629.891C247.426 629.78 244.321 629.306 241.31 628.483ZM438.581 293.543C440.703 293.543 442.738 292.706 444.136 291.11C446.292 288.648 449.641 284.508 452.532 279.571C455.033 275.299 460.534 273.246 465.31 274.551C468.321 275.373 471.426 275.848 474.566 275.958C476.701 276.033 478.832 275.94 480.94 275.681C486.725 274.97 492.886 278.934 492.886 284.763V285.543C492.886 289.961 496.468 293.543 500.886 293.543H501.923C506.324 293.543 509.934 289.988 510.51 285.624C511.918 274.97 516.462 257.134 531.13 255.299C553.368 252.519 552.975 245.7 552.512 237.658V237.657V237.657V237.656V237.655V237.654V237.654V237.653C552.402 235.744 550.638 234.294 548.821 233.699C546.43 232.916 544.277 231.135 541.951 229.212C538.055 225.989 533.674 222.365 526.879 222.365C524.966 222.365 522.621 222.796 519.846 223.306C510.296 225.063 495.642 227.757 475.887 217.055C470.361 213.915 464.07 212.371 457.718 212.598C451.366 212.824 445.201 214.812 439.913 218.338C434.624 221.864 430.419 226.79 427.767 232.567C425.116 238.344 424.122 244.744 424.896 251.053C427.078 268.526 428.138 279.262 428.654 285.571C429.014 289.974 432.723 293.543 437.141 293.543H438.581ZM465.31 451.517C460.534 450.213 455.033 452.266 452.532 456.538C449.641 461.475 446.292 465.615 444.136 468.076C442.738 469.672 440.703 470.509 438.581 470.509H437.141C432.723 470.509 429.014 466.941 428.654 462.537C428.138 456.228 427.078 445.492 424.896 428.02C424.122 421.711 425.116 415.311 427.767 409.534C430.419 403.757 434.624 398.83 439.913 395.304C445.201 391.778 451.366 389.791 457.718 389.564C464.07 389.338 470.361 390.881 475.887 394.022C495.642 404.724 510.296 402.029 519.846 400.273C522.621 399.762 524.966 399.331 526.879 399.331C533.674 399.331 538.055 402.955 541.951 406.178C544.276 408.101 546.429 409.882 548.819 410.665C550.637 411.26 552.402 412.711 552.512 414.621V414.621V414.622V414.622V414.623V414.624V414.624C552.975 422.666 553.368 429.486 531.13 432.265C516.462 434.101 511.918 451.937 510.51 462.591C509.934 466.954 506.324 470.509 501.923 470.509H500.886C496.468 470.509 492.886 466.927 492.886 462.509V461.729C492.886 455.901 486.725 451.936 480.94 452.647C478.832 452.906 476.701 453 474.566 452.925C471.426 452.814 468.321 452.339 465.31 451.517ZM662.581 293.543C664.703 293.543 666.738 292.706 668.136 291.11C670.292 288.648 673.641 284.508 676.532 279.571C679.033 275.299 684.534 273.246 689.31 274.551C692.321 275.373 695.426 275.848 698.566 275.958C700.701 276.033 702.832 275.94 704.94 275.681C710.725 274.97 716.886 278.934 716.886 284.763V285.543C716.886 289.961 720.468 293.543 724.886 293.543H725.923C730.324 293.543 733.934 289.988 734.51 285.624C735.918 274.97 740.462 257.134 755.13 255.299C777.368 252.519 776.975 245.7 776.512 237.658V237.657V237.657V237.656C776.402 235.745 774.636 234.294 772.818 233.698C770.428 232.915 768.276 231.134 765.951 229.212C762.055 225.989 757.674 222.365 750.879 222.365C748.966 222.365 746.621 222.796 743.846 223.306C734.296 225.063 719.642 227.757 699.887 217.055C694.361 213.915 688.07 212.371 681.718 212.598C675.366 212.824 669.201 214.812 663.913 218.338C658.624 221.864 654.419 226.79 651.767 232.567C649.116 238.344 648.122 244.744 648.896 251.053C651.078 268.526 652.138 279.262 652.654 285.571C653.014 289.974 656.723 293.543 661.141 293.543H662.581ZM556.521 793.171C553.495 789.952 548.432 789.795 545.212 792.821L451.041 881.342C447.824 884.366 446 888.585 446 893C446 897.415 447.824 901.634 451.041 904.658L545.212 993.179C548.432 996.205 553.495 996.048 556.521 992.829L567.479 981.171C570.505 977.952 570.349 972.889 567.13 969.863L491.562 898.829C488.201 895.67 488.201 890.33 491.562 887.171L567.13 816.137C570.349 813.111 570.505 808.048 567.479 804.829L556.521 793.171ZM847.438 898.829C850.799 895.67 850.799 890.33 847.438 887.171L771.87 816.137C768.651 813.111 768.495 808.048 771.521 804.829L782.479 793.171C785.505 789.952 790.568 789.795 793.788 792.821L887.959 881.342L894.16 887.171C897.521 890.33 897.521 895.67 894.16 898.829L887.959 904.658L793.788 993.179C790.568 996.205 785.505 996.048 782.479 992.829L771.521 981.171C768.495 977.952 768.651 972.889 771.87 969.863L847.438 898.829ZM624.57 994.492C624.071 991.091 624.232 987.628 625.044 984.291C627.071 977.982 631.426 972.677 637.23 969.461C643.139 966.187 650.088 965.335 656.613 967.083C663.138 968.831 668.73 973.044 672.211 978.834C675.685 984.615 676.785 991.517 675.278 998.09C672.126 1011.48 665.702 1023.87 656.583 1034.17C655.412 1035.49 654.047 1036.93 652.525 1038.44C647.857 1043.08 640.02 1039.7 638.697 1033.26C636.893 1024.47 633.734 1015.03 628.608 1005.27L628.386 1004.85L628.139 1004.44C626.3 1001.39 625.086 998.011 624.57 994.492ZM621.721 941.47C608.56 948.763 598.743 960.879 594.338 975.267L594.232 975.611L594.143 975.96C592.194 983.527 591.775 991.406 592.909 999.137C594.017 1006.69 596.587 1013.95 600.472 1020.52C608.412 1035.83 609.368 1049.55 608.453 1059.36C607.988 1064.35 607.035 1068.34 606.244 1070.97C605.85 1072.29 605.501 1073.25 605.282 1073.81C605.173 1074.09 605.098 1074.27 605.066 1074.35L605.066 1074.35L596.929 1091.81C593.914 1098.27 600.237 1105.15 606.937 1102.69L625.133 1096.02C635.086 1092.36 646.108 1085.24 655.478 1078.1C665.039 1070.83 674.244 1062.49 680.537 1055.39C693.177 1041.12 702.077 1023.93 706.438 1005.38L706.446 1005.34L706.453 1005.31C709.833 990.645 707.389 975.244 699.637 962.348C698.913 961.143 698.147 959.969 697.343 958.827C695.724 956.528 695.164 953.603 696.101 950.951L751.951 792.838L751.957 792.819C754.133 786.696 755.018 780.189 754.556 773.707C754.093 767.219 752.292 760.897 749.265 755.14C746.237 749.383 742.05 744.315 736.967 740.256C731.884 736.198 726.015 733.236 719.73 731.559C713.458 729.882 706.906 729.52 700.486 730.497C694.064 731.474 687.913 733.77 682.421 737.239C676.929 740.709 672.214 745.277 668.573 750.657C664.932 756.037 662.443 762.112 661.264 768.501L661.262 768.513L661.259 768.526L631.156 933.04C630.642 935.85 628.65 938.133 626.045 939.305C624.58 939.964 623.137 940.686 621.721 941.47ZM678.186 887.455C675.024 886.607 671.812 888.639 671.223 891.859L663.881 931.984C663.646 933.269 664.462 934.507 665.722 934.854C666.802 935.152 667.944 934.585 668.317 933.528L682.02 894.735C683.108 891.654 681.342 888.3 678.186 887.455ZM697.193 851.78C695.802 855.718 691.614 857.924 687.579 856.843L685.222 856.211C681.196 855.132 678.673 851.143 679.423 847.044L692.732 774.31L692.733 774.305C693.112 772.26 693.908 770.315 695.074 768.593C696.241 766.869 697.752 765.405 699.511 764.293C701.271 763.182 703.242 762.446 705.3 762.133C707.358 761.82 709.458 761.936 711.469 762.474L711.478 762.476C713.492 763.014 715.372 763.963 717.001 765.263C718.63 766.564 719.971 768.188 720.941 770.032C721.911 771.877 722.488 773.903 722.637 775.982C722.785 778.061 722.5 780.148 721.802 782.111L721.796 782.128L721.79 782.146L697.193 851.78Z" fill="#63464D"/>
</svg>
